<?xml version="1.0" encoding="UTF-8"?>
<svg xmlns="http://www.w3.org/2000/svg" width="1223.23" height="178.5" version="1.1" viewBox="0 0 1223.23 178.5">
  <!-- Generator: Adobe Illustrator 28.7.2, SVG Export Plug-In . SVG Version: 1.2.0 Build 154)  -->
  <g>
    <g id="Layer_1">
      <g>
        <g>
          <path d="M.01,39.85c0-8.89-.03-17.77,0-26.66C.05,4.67,4.47.1,12.86.08c18.04-.05,36.07-.05,54.11,0,8.8.02,13.08,4.37,13.11,13.19.05,14.14-.13,28.27.11,42.41.24,13.54,4.3,25.47,16.15,33.45,8.02,5.4,17.15,6.77,26.57,6.79,13.19.02,26.38-.02,39.57.02,9.17.02,13.39,4.22,13.4,13.27.02,17.77.03,35.54,0,53.31,0,9.07-4.32,13.47-13.26,13.49-18.04.04-36.07.05-54.11,0-8.3-.02-12.68-4.43-12.7-12.75-.04-14.14.18-28.27-.07-42.41-.26-14.14-4.5-26.51-17.22-34.5-7.18-4.51-15.21-6.02-23.53-6.09-13.59-.11-27.19-.03-40.78-.05C3.97,80.19-.02,76.21,0,66.1c.02-8.75,0-17.5,0-26.25" fill="#3000cc"/>
          <path d="M40.53,95.95c22.6.2,39.75,18.1,39.52,41.24-.21,21.47-18.38,38.92-40.41,38.82C17.82,175.9-.2,157.65.03,135.89c.24-22.66,17.96-40.14,40.5-39.94" fill="#3000cc"/>
          <path d="M132.23.77l2.38,7.92c4.77,15.89,17.21,28.33,33.1,33.1l7.93,2.38-7.93,2.38c-15.89,4.77-28.33,17.21-33.1,33.1l-2.38,7.92-2.38-7.92c-4.77-15.89-17.21-28.33-33.1-33.1l-7.92-2.38,7.92-2.38c15.89-4.77,28.33-17.21,33.1-33.1l2.38-7.92Z" fill="#3000cc"/>
        </g>
        <g>
          <path d="M360.86,136.09c0,12.92-.12,25.82.14,38.75h-28.22c-.52-3.66-.81-12.28-.93-20.79-6.65,13.95-18.15,24.45-46.95,24.45s-49.87-15.59-49.87-54.43V41.91h29.13v77c0,19.51,7.56,35.62,29.87,35.62,26.63,0,37.71-15.52,37.71-52.2v-60.42h29.13v94.18Z" fill="#3000cc"/>
          <path d="M377.89,41.91h25.78V0h29.24v41.91h33.71v22.33h-33.71v68.69c0,14.28,3.52,20.67,17.6,20.67,3.8,0,8.86-.14,12.66-1.07v20.93c-6.3,2.09-13.9,2.57-22.07,2.57-28.79,0-37.44-12.76-37.44-38.87v-72.92h-25.78v-22.33Z" fill="#3000cc"/>
          <path d="M501.36,108.46c0,24.12,14.99,46.83,42.46,46.83s42.08-21.43,42.08-46.47-14.59-47.35-42.62-47.35-41.91,21.83-41.91,46.99M615.9,108.31c0,37.89-24.95,70.18-73.08,70.18s-71.23-33.26-71.23-70.04,26.51-70.21,72.63-70.21,71.68,35.45,71.68,70.06" fill="#3000cc"/>
          <path d="M635.38,76.22c0-11.48,0-22.83-.26-34.31h28.03c.64,5.37.9,12.43.88,18.87,6.77-10.98,19.58-22.52,42.34-22.52s34.97,10.45,40.63,24.57c7.06-11.1,19.46-24.57,45.47-24.57s48.09,15.54,48.09,54.91v81.68h-28.77v-80.78c0-14.54-4.78-32.45-26.94-32.45-19.67,0-32.31,13.19-32.31,40.22v73.01h-28.89v-81.63c0-15.23-5.27-31.6-27.09-31.6-23.09,0-32.29,17.82-32.29,41.67v71.56h-28.89v-98.62Z" fill="#3000cc"/>
          <path d="M959.57,111.78c-3.87-.12-12.85-.12-30.65-.12-28.27,0-41.15,6.49-41.15,22.48,0,12.12,9.1,22.24,29.48,22.24,32.31,0,42.31-18.18,42.31-39.73v-4.87ZM988.08,140.89c0,13.99.78,30.93,1.19,33.95h-27.65c-1.05-4.44-1.45-14.14-1.57-18.37-7.03,13.23-22.14,22.02-49.54,22.02-37.28,0-51.29-22.62-51.29-42.86,0-34.24,30.81-43.74,69.06-43.74h31.29v-6.37c0-13.61-5.87-26.02-32.03-26.02-23.69,0-29.2,10.15-31.62,21.22h-29.13c1.47-17.32,13.23-42.48,60.53-42.48,50.63,0,60.75,24.49,60.75,46.52v56.12Z" fill="#3000cc"/>
          <path d="M998.2,41.91h25.78V0h29.24v41.91h33.71v22.33h-33.71v68.69c0,14.28,3.52,20.67,17.61,20.67,3.8,0,8.86-.14,12.66-1.07v20.93c-6.3,2.09-13.9,2.57-22.07,2.57-28.79,0-37.44-12.76-37.44-38.87v-72.92h-25.78v-22.33Z" fill="#3000cc"/>
          <path d="M1193.54,111.78c-3.87-.12-12.85-.12-30.65-.12-28.27,0-41.15,6.49-41.15,22.48,0,12.12,9.1,22.24,29.48,22.24,32.31,0,42.32-18.18,42.32-39.73v-4.87ZM1222.05,140.89c0,13.99.78,30.93,1.19,33.95h-27.65c-1.05-4.44-1.45-14.14-1.57-18.37-7.03,13.23-22.14,22.02-49.54,22.02-37.28,0-51.29-22.62-51.29-42.86,0-34.24,30.81-43.74,69.07-43.74h31.29v-6.37c0-13.61-5.87-26.02-32.03-26.02-23.69,0-29.2,10.15-31.62,21.22h-29.13c1.47-17.32,13.23-42.48,60.54-42.48,50.63,0,60.75,24.49,60.75,46.52v56.12Z" fill="#3000cc"/>
        </g>
      </g>
    </g>
    <metadata>
      <sfw xmlns="http://ns.adobe.com/SaveForWeb/1.0/">
        <slices/>
        <sliceSourceBounds x="0" y="-485.26" width="1223.23" height="178.5" bottomLeftOrigin="true"/>
      </sfw>
    </metadata>
  </g>
</svg>